<svg width="40" height="40" viewBox="0 0 40 40" fill="none" xmlns="http://www.w3.org/2000/svg">
<mask id="mask0" mask-type="alpha" maskUnits="userSpaceOnUse" x="0" y="0" width="40" height="40">
<rect width="40" height="40" fill="url(#paint0_linear)"/>
</mask>
<g mask="url(#mask0)">
<path d="M0 0H10V10H0V0Z" transform="translate(10)" fill="#81ECEC"/>
<path d="M0 0H10V10H0V0Z" fill="#55EFC4"/>
<path d="M0 0H10V10H0V0Z" transform="translate(20)" fill="#74B9FF"/>
<path d="M0 0H10V10H0V0Z" transform="translate(30)" fill="#A29BFE"/>
<path d="M0 0H10V10H0V0Z" transform="translate(10 10)" fill="#00CEC9"/>
<path d="M0 0H10V10H0V0Z" transform="translate(0 10)" fill="#00B894"/>
<path d="M0 0H10V10H0V0Z" transform="translate(20 10)" fill="#0984E3"/>
<path d="M0 0H10V10H0V0Z" transform="translate(30 10)" fill="#6C5CE7"/>
<path d="M0 0H10V10H0V0Z" transform="translate(10 20)" fill="#FAB1A0"/>
<path d="M0 0H10V10H0V0Z" transform="translate(0 20)" fill="#FFEAA7"/>
<path d="M0 0H10V10H0V0Z" transform="translate(20 20)" fill="#FF7675"/>
<path d="M0 0H10V10H0V0Z" transform="translate(30 20)" fill="#FD79A8"/>
<path d="M0 0H10V10H0V0Z" transform="translate(10 30)" fill="#E17055"/>
<path d="M0 0H10V10H0V0Z" transform="translate(0 30)" fill="#FDCB6E"/>
<path d="M0 0H10V10H0V0Z" transform="translate(20 30)" fill="#D63031"/>
<path d="M0 0H10V10H0V0Z" transform="translate(30 30)" fill="#E84393"/>
</g>
<defs>
<linearGradient id="paint0_linear" x2="1" gradientUnits="userSpaceOnUse" gradientTransform="translate(40) scale(40) rotate(90)">
<stop stop-color="#81D1FF"/>
<stop offset="1" stop-color="#BFA9FF"/>
</linearGradient>
</defs>
</svg>
