<svg width="32" height="32" viewBox="0 0 32 32" fill="none" xmlns="http://www.w3.org/2000/svg">
<rect width="30" height="30" transform="translate(1 1)" stroke="#E4C7FF"/>
<rect width="15" height="15" transform="translate(1 1)" stroke="#E4C7FF"/>
<rect width="15" height="15" transform="translate(16 1)" stroke="#E4C7FF"/>
<rect width="7.5" height="7.5" transform="translate(8.5 1)" stroke="#E4C7FF"/>
<rect width="7.5" height="7.5" transform="translate(1 8.5)" stroke="#E4C7FF"/>
<rect width="7.5" height="7.5" transform="translate(8.5 8.5)" stroke="#E4C7FF"/>
<rect width="15" height="15" transform="translate(1 16)" stroke="#E4C7FF"/>
<rect width="7.5" height="7.5" transform="translate(1 16)" stroke="#E4C7FF"/>
<rect width="7.5" height="7.5" transform="translate(8.5 16)" stroke="#E4C7FF"/>
<rect width="7.5" height="7.5" transform="translate(1 8.5)" stroke="#E4C7FF"/>
<rect width="7.5" height="7.5" transform="translate(8.5 8.5)" stroke="#E4C7FF"/>
<rect width="7.5" height="7.5" transform="translate(1 1)" stroke="#E4C7FF"/>
<rect width="3.75" height="3.75" transform="translate(1 1)" stroke="#E4C7FF"/>
<rect width="3.75" height="3.75" transform="translate(4.75 1)" stroke="#E4C7FF"/>
<rect width="7.5" height="7.5" transform="translate(8.5 1)" stroke="#E4C7FF"/>
<rect width="3.75" height="3.75" transform="translate(8.5 1)" stroke="#E4C7FF"/>
<rect width="3.75" height="3.75" transform="translate(12.25 1)" stroke="#E4C7FF"/>
<rect width="3.75" height="3.75" transform="translate(8.5 4.75)" stroke="#E4C7FF"/>
<rect width="3.75" height="3.75" transform="translate(12.25 4.75)" stroke="#E4C7FF"/>
<rect width="7.5" height="7.5" transform="translate(1 8.5)" stroke="#E4C7FF"/>
<rect width="3.75" height="3.75" transform="translate(1 8.5)" stroke="#E4C7FF"/>
<rect width="3.75" height="3.75" transform="translate(4.75 8.5)" stroke="#E4C7FF"/>
<rect width="3.75" height="3.75" transform="translate(1 12.25)" stroke="#E4C7FF"/>
<rect width="3.75" height="3.75" transform="translate(4.75 12.25)" stroke="#E4C7FF"/>
<rect width="7.5" height="7.5" transform="translate(8.5 8.5)" stroke="#E4C7FF"/>
<rect width="7.5" height="7.5" transform="translate(16 1)" stroke="#E4C7FF"/>
<rect width="7.5" height="7.5" transform="translate(23.5 1)" stroke="#E4C7FF"/>
<rect width="7.5" height="7.5" transform="translate(16 8.5)" stroke="#E4C7FF"/>
<rect width="7.5" height="7.5" transform="translate(23.5 8.5)" stroke="#E4C7FF"/>
<rect width="7.5" height="7.5" transform="translate(16 1)" stroke="#E4C7FF"/>
<rect width="3.75" height="3.75" transform="translate(16 1)" stroke="#E4C7FF"/>
<rect width="3.75" height="3.75" transform="translate(19.75 1)" stroke="#E4C7FF"/>
<rect width="3.75" height="3.75" transform="translate(16 4.75)" stroke="#E4C7FF"/>
<rect width="3.75" height="3.75" transform="translate(19.75 4.75)" stroke="#E4C7FF"/>
<rect width="7.5" height="7.5" transform="translate(23.5 1)" stroke="#E4C7FF"/>
<rect width="3.75" height="3.75" transform="translate(23.5 1)" stroke="#E4C7FF"/>
<rect width="3.75" height="3.75" transform="translate(27.25 1)" stroke="#E4C7FF"/>
<rect width="7.5" height="7.5" transform="translate(16 8.5)" stroke="#E4C7FF"/>
<rect width="3.75" height="3.75" transform="translate(16 8.5)" stroke="#E4C7FF"/>
<rect width="3.75" height="3.75" transform="translate(19.75 8.5)" stroke="#E4C7FF"/>
<rect width="3.75" height="3.75" transform="translate(16 12.25)" stroke="#E4C7FF"/>
<rect width="3.75" height="3.75" transform="translate(19.75 12.25)" stroke="#E4C7FF"/>
<rect width="7.5" height="7.5" transform="translate(23.5 8.5)" stroke="#E4C7FF"/>
<rect width="3.75" height="3.75" transform="translate(27.25 12.25)" stroke="#E4C7FF"/>
<rect width="15" height="15" transform="translate(1 16)" stroke="#E4C7FF"/>
<rect width="7.5" height="7.5" transform="translate(1 16)" stroke="#E4C7FF"/>
<rect width="7.5" height="7.5" transform="translate(8.5 16)" stroke="#E4C7FF"/>
<rect width="7.5" height="7.5" transform="translate(1 23.5)" stroke="#E4C7FF"/>
<rect width="7.5" height="7.5" transform="translate(8.5 23.5)" stroke="#E4C7FF"/>
<rect width="7.5" height="7.5" transform="translate(1 16)" stroke="#E4C7FF"/>
<rect width="3.75" height="3.75" transform="translate(1 16)" stroke="#E4C7FF"/>
<rect width="3.75" height="3.75" transform="translate(4.75 16)" stroke="#E4C7FF"/>
<rect width="3.75" height="3.75" transform="translate(1 19.75)" stroke="#E4C7FF"/>
<rect width="3.75" height="3.75" transform="translate(4.75 19.75)" stroke="#E4C7FF"/>
<rect width="7.5" height="7.5" transform="translate(8.5 16)" stroke="#E4C7FF"/>
<rect width="3.75" height="3.75" transform="translate(8.5 16)" stroke="#E4C7FF"/>
<rect width="3.75" height="3.75" transform="translate(12.25 16)" stroke="#E4C7FF"/>
<rect width="3.75" height="3.75" transform="translate(8.5 19.75)" stroke="#E4C7FF"/>
<rect width="3.75" height="3.75" transform="translate(12.25 19.75)" stroke="#E4C7FF"/>
<rect width="7.5" height="7.5" transform="translate(1 23.5)" stroke="#E4C7FF"/>
<rect width="3.75" height="3.75" transform="translate(1 23.5)" stroke="#E4C7FF"/>
<rect width="3.75" height="3.75" transform="translate(4.75 23.5)" stroke="#E4C7FF"/>
<rect width="3.75" height="3.75" transform="translate(8.5 23.5)" stroke="#E4C7FF"/>
<rect width="3.75" height="3.75" transform="translate(12.25 23.5)" stroke="#E4C7FF"/>
<rect width="3.75" height="3.75" transform="translate(8.5 27.25)" stroke="#E4C7FF"/>
<rect width="3.75" height="3.75" transform="translate(12.25 27.25)" stroke="#E4C7FF"/>
<rect width="15" height="15" transform="translate(16 16)" stroke="#E4C7FF"/>
<rect width="7.5" height="7.5" transform="translate(16 16)" stroke="#E4C7FF"/>
<rect width="7.5" height="7.5" transform="translate(16 16)" stroke="#E4C7FF"/>
<rect width="3.75" height="3.75" transform="translate(16 16)" stroke="#E4C7FF"/>
<rect width="3.75" height="3.75" transform="translate(19.75 16)" stroke="#E4C7FF"/>
<rect width="3.75" height="3.75" transform="translate(16 19.75)" stroke="#E4C7FF"/>
<rect width="3.75" height="3.75" transform="translate(19.75 19.75)" stroke="#E4C7FF"/>
<rect width="7.5" height="7.5" transform="translate(23.5 16)" stroke="#E4C7FF"/>
<rect width="3.75" height="3.75" transform="translate(23.5 16)" stroke="#E4C7FF"/>
<rect width="3.75" height="3.75" transform="translate(27.25 16)" stroke="#E4C7FF"/>
<rect width="3.75" height="3.75" transform="translate(23.5 19.75)" stroke="#E4C7FF"/>
<rect width="3.75" height="3.75" transform="translate(16 27.25)" stroke="#E4C7FF"/>
<rect width="3.75" height="3.75" transform="translate(19.75 27.25)" stroke="#E4C7FF"/>
<rect width="7.5" height="7.5" transform="translate(23.5 23.5)" stroke="#E4C7FF"/>
<rect width="3.75" height="3.75" transform="translate(23.5 23.5)" stroke="#E4C7FF"/>
<rect width="3.75" height="3.75" transform="translate(27.25 23.5)" stroke="#E4C7FF"/>
<rect width="3.75" height="3.75" transform="translate(23.5 27.25)" stroke="#E4C7FF"/>
<rect width="3.75" height="3.75" transform="translate(27.25 27.25)" stroke="#E4C7FF"/>
</svg>
